<svg xmlns="http://www.w3.org/2000/svg" width="50" height="50" style="width:20%;height:20%;transform:translate3d(0,0,0);content-visibility:visible" viewBox="0 0 430 500"><defs><clipPath id="a"><path d="M0 0h430v430H0z"/></clipPath><clipPath id="b"><path d="M0 0h430v430H0z"/></clipPath></defs><g clip-path="url(#a)"><g fill="none" stroke-linecap="round" stroke-linejoin="round" stroke-width="12.04" clip-path="url(#b)" style="display:block"><g stroke="#fff" style="display:block"><path d="M276.957 307.693H153.041c-28.224 0-51.105-22.881-51.105-51.105V132.672c0-28.224 22.881-51.105 51.105-51.105h123.916c28.224 0 51.105 22.881 51.105 51.105v123.916c0 28.224-22.881 51.105-51.105 51.105zm51.105-51.103v38.31c0 28.22-22.88 51.1-51.1 51.1h-123.92c-28.23 0-51.11-22.88-51.11-51.1v-38.31" class="primary"/><path d="m131.925 150.826.014-15.173c0-13.301 10.782-24.083 24.083-24.083l14.96-.013" class="primary"/></g><path stroke="#fff" d="M30.073 14.25h-60.146l46.786-61.498v94.496" class="secondary" style="display:block" transform="translate(215 201.748)"/></g></g></svg>